<?xml version="1.0" encoding="utf-8"?>
<!-- Generator: Adobe Illustrator 24.3.0, SVG Export Plug-In . SVG Version: 6.00 Build 0)  -->
<svg version="1.1" id="Layer_1" xmlns="http://www.w3.org/2000/svg" xmlns:xlink="http://www.w3.org/1999/xlink" x="0px" y="0px"
	 viewBox="0 0 512 512" style="enable-background:new 0 0 512 512;" xml:space="preserve">
<style type="text/css">
	.st0{fill:#333333;}
</style>
<g id="XMLID_1_">
	<path id="XMLID_3_" class="st0" d="M310.88,199.35c-0.28,0-0.28,0-0.56-0.14C310.46,199.35,310.74,199.35,310.88,199.35z"/>
	<path id="XMLID_6_" class="st0" d="M30.54,163.15H-0.05v153.22h35.92c18.8,0,31.99-5.61,39.43-16.7
		c7.58-11.08,11.22-31.43,11.22-60.61c0-28.76-3.65-48.69-11.22-59.49C67.86,168.77,52.99,163.15,30.54,163.15z M50.74,292.1
		c-2.67,5.19-7.58,7.58-14.45,7.58h-5.47V179.99h5.47c7.02,0,11.93,4.35,14.59,13.05c2.67,8.7,4.07,24.55,4.07,47.71
		C54.81,269.79,53.41,287.05,50.74,292.1z"/>
	<rect id="XMLID_7_" x="92.56" y="163.29" class="st0" width="28.9" height="26.8"/>
	<rect id="XMLID_8_" x="92.56" y="199.07" class="st0" width="28.9" height="117.44"/>
	<path id="XMLID_9_" class="st0" d="M170.01,250.15c-9.26-8.14-14.73-13.61-16.42-16.56c-1.82-3.09-2.67-6.03-2.67-9.26
		c0-2.67,0.84-4.77,2.39-6.17c1.54-1.4,3.51-2.1,5.89-2.1c2.81,0,4.91,1.12,6.45,3.23s2.39,5.05,2.39,8.56h23.15
		c0-9.68-2.81-17.12-8.28-22.45c-5.47-5.33-13.47-7.86-23.85-7.86c-9.82,0-17.54,2.53-23.57,7.58c-5.89,5.19-8.98,11.93-8.98,20.63
		c0,8.28,1.26,15.29,3.65,20.91c2.39,5.61,8,12.21,16.84,19.92c7.02,5.89,11.93,10.66,15.01,13.89c3.09,3.23,4.63,6.31,4.63,9.12
		c0,3.09-0.7,5.33-2.1,6.88c-1.4,1.54-3.65,2.24-6.45,2.24c-3.09,0-5.33-0.98-6.88-2.95c-1.54-1.96-2.39-5.05-2.39-9.26h-23.43
		c0,10.38,2.81,18.1,8.42,23.29c5.61,5.19,13.89,7.72,24.98,7.72c10.38,0,18.38-2.81,24.27-8.28c5.89-5.47,8.84-13.19,8.84-23.15
		c0-6.45-1.54-12.21-4.77-17.4C183.76,263.48,178.15,257.44,170.01,250.15z"/>
	<path id="XMLID_10_" class="st0" d="M507.32,268.67c-3.09-5.19-8.7-11.37-16.84-18.38c-9.26-8.14-14.73-13.61-16.42-16.56
		c-1.82-3.09-2.67-6.03-2.67-9.26c0-2.67,0.84-4.77,2.39-6.17c1.54-1.4,3.51-2.1,5.89-2.1c2.81,0,4.91,1.12,6.45,3.23
		c1.54,2.1,2.39,5.05,2.39,8.56h23.15c0-9.68-2.81-17.12-8.28-22.45c-5.47-5.33-13.47-7.86-23.85-7.86
		c-9.82,0-17.54,2.53-23.57,7.58c-5.89,5.19-8.98,11.93-8.98,20.63c0,8.28,1.26,15.29,3.65,20.91s8,12.21,16.84,19.92
		c7.02,5.89,11.93,10.66,15.01,13.89c3.09,3.23,4.63,6.31,4.63,9.12c0,3.09-0.7,5.33-2.24,6.88c-1.4,1.54-3.65,2.25-6.45,2.25
		c-3.09,0-5.33-0.98-6.88-2.95c-1.54-1.96-2.39-5.05-2.39-9.26h-23.71c0,10.38,2.81,18.1,8.42,23.29
		c5.61,5.19,13.89,7.72,24.98,7.72c10.38,0,18.38-2.81,24.27-8.28c5.89-5.47,8.84-13.19,8.84-23.15
		C511.95,279.61,510.41,273.86,507.32,268.67z"/>
	<path id="XMLID_13_" class="st0" d="M293.62,260.11c0-9.54,7.72-17.26,17.26-17.26s17.26,7.72,17.26,17.26
		c0,9.54-7.72,17.26-17.26,17.26C301.48,277.37,293.62,269.65,293.62,260.11z M294.47,260.11c0,9.12,7.44,16.42,16.42,16.42
		c8.98,0,16.42-7.44,16.42-16.42c0-8.98-7.44-16.42-16.42-16.42C301.76,243.55,294.47,250.99,294.47,260.11z"/>
	<path id="XMLID_14_" class="st0" d="M313.69,260.11c0,1.4-1.26,2.67-2.67,2.67c-1.4,0-2.67-1.26-2.67-2.67
		c0-1.4,1.26-2.67,2.67-2.67C312.43,257.44,313.69,258.57,313.69,260.11z"/>
	<path id="XMLID_15_" class="st0" d="M252.23,287.33h-10.94c-0.42,5.05-1.26,8.28-2.53,9.82c-1.26,1.54-3.09,2.25-5.75,2.25
		c-4.21,0-6.88-2.53-8-7.3c-1.26-4.77-1.82-16.42-1.82-34.66c0-15.86,0.56-26.66,1.54-32.69c0.98-6.03,3.65-9.12,7.86-9.12
		c2.53,0,4.21,0.98,5.33,3.09c0.98,2.1,1.54,6.74,1.54,13.89h12.63c2.81-5.89,6.31-11.22,10.66-15.86
		c-1.4-4.21-3.51-7.72-6.17-10.52c-5.61-5.89-13.61-8.7-24.13-8.7c-13.05,0-23.01,5.05-29.47,15.15c-6.45,10.1-9.82,24.98-9.82,44.9
		s3.09,34.94,9.4,44.9c6.31,10.1,15.43,15.15,27.64,15.15c10.8,0,18.8-2.53,24.27-7.44c2.67-2.53,4.63-5.47,5.89-9.26
		C257.42,296.73,254.62,292.1,252.23,287.33z"/>
	<path id="XMLID_18_" class="st0" d="M375.43,260.25c0,11.51-2.95,22.03-8.14,31.43c1.82,6.59,4.35,11.65,7.72,15.29
		c4.63,4.77,10.94,7.02,19.22,7.02c4.77,0,9.12-0.7,12.63-1.96c3.65-1.26,6.03-2.95,7.3-4.91c0.14,1.12,0.28,2.25,0.28,3.09
		c0.14,0.84,0.14,1.82,0.14,2.53c0,6.17-1.4,10.8-4.21,13.89c-2.81,3.09-7.02,4.77-12.91,4.77c-3.79,0-8.14-0.42-12.63-1.4
		c-4.63-0.84-8.42-1.96-11.37-3.23l-3.65,16c4.35,1.96,9.26,3.51,14.59,4.49c5.33,0.98,10.66,1.4,15.86,1.4
		c12.49,0,22.45-3.09,29.89-9.4c7.3-6.31,10.94-15.15,10.94-26.52V198.93h-28.76v2.81c-2.53-1.54-5.19-2.67-7.72-3.37
		c-2.53-0.7-5.61-0.98-9.12-0.98c-7.02,0-13.05,2.1-17.82,6.45c-4.91,4.35-8.42,10.38-10.52,18.1c-0.28,1.4-0.84,2.95-1.12,4.77
		C371.92,236.68,375.29,247.9,375.43,260.25 M412.47,294.77c-1.26,0.98-2.53,1.68-3.65,2.1c-1.26,0.42-2.95,0.7-4.91,0.7
		c-2.67,0-4.77-0.84-6.17-2.39s-2.39-4.21-2.67-7.72c-0.28-3.65-0.7-8.42-0.84-14.03c-0.28-5.61-0.28-11.51-0.28-17.82
		c0-4.07,0.14-8.56,0.28-13.75c0.28-5.19,0.56-9.96,0.98-14.45c0.42-4.35,1.4-7.3,2.95-8.84s3.93-2.39,7.02-2.39
		c1.12,0,2.53,0.28,3.93,0.42c1.4,0.28,2.67,0.84,3.51,1.26v76.89H412.47z"/>
	<path id="XMLID_19_" class="st0" d="M279.73,260.11c0,8.84,3.65,16.7,9.54,22.45l5.89-6.45c0,0,0,0,0.14,0.14
		c-4.21-4.07-6.88-9.82-6.88-16.14c0-12.49,10.1-22.59,22.59-22.59c4.21,0,8,1.12,11.23,3.09l4.21-7.58
		c-4.63-2.53-9.82-4.07-15.29-4.07C293.76,228.96,279.73,242.99,279.73,260.11z"/>
	<path id="XMLID_20_" class="st0" d="M333.33,260.11c0,12.49-10.1,22.59-22.45,22.59c-3.79,0-7.3-0.84-10.38-2.53l-4.21,7.58
		c4.35,2.39,9.4,3.65,14.73,3.65c17.12,0,31.15-14.03,31.15-31.15c0-8.56-3.51-16.28-8.98-21.89l-5.89,6.45
		C331.09,248.6,333.33,254.08,333.33,260.11z"/>
	<path id="XMLID_21_" class="st0" d="M269.91,260.11c0,11.65,4.91,22.17,12.77,29.75l5.89-6.45c-6.17-5.89-9.96-14.17-9.96-23.15
		c0-17.82,14.45-32.27,32.27-32.27c5.89,0,11.23,1.54,15.86,4.21l4.21-7.58c-5.89-3.37-12.77-5.33-20.2-5.33
		C288.29,219,269.91,237.38,269.91,260.11z"/>
	<path id="XMLID_22_" class="st0" d="M343.15,260.11c0,17.82-14.45,32.27-32.27,32.27c-5.47,0-10.66-1.4-15.29-3.79l-4.21,7.58
		c5.89,3.09,12.49,4.91,19.5,4.91c22.59,0,40.97-18.38,40.97-40.97c0-11.37-4.63-21.61-12.07-29.04l-5.89,6.45
		C339.65,243.27,343.15,251.27,343.15,260.11z"/>
	<path id="XMLID_23_" class="st0" d="M352.98,260.11c0,23.15-18.94,42.09-42.09,42.09c-7.3,0-14.17-1.82-20.06-5.05l-4.35,7.72
		c7.3,3.93,15.57,6.31,24.41,6.31c28.2,0,50.93-22.87,50.93-50.93c0-14.17-5.89-27.08-15.29-36.34l-5.89,6.45
		C348.35,237.8,352.98,248.46,352.98,260.11z"/>
	<path id="XMLID_24_" class="st0" d="M259.95,260.11c0,14.59,6.17,27.64,15.86,37.04l5.89-6.45c-8.14-7.58-13.05-18.52-13.05-30.45
		c0-23.15,18.94-42.09,42.09-42.09c7.58,0,14.59,1.96,20.63,5.47l4.21-7.72c-7.44-4.21-15.86-6.45-24.84-6.45
		C282.82,209.04,259.95,231.91,259.95,260.11z"/>
	<path id="XMLID_25_" class="st0" d="M353.26,216.61l-5.89,6.31c9.68,9.4,15.71,22.59,15.71,37.04c0,28.76-23.29,52.06-52.06,52.06
		c-9.12,0-17.54-2.39-24.84-6.45l-4.35,7.72c8.7,4.77,18.66,7.58,29.18,7.58c33.53,0,60.76-27.22,60.76-60.76
		C371.64,242.99,364.48,227.7,353.26,216.61z"/>
	<path id="XMLID_26_" class="st0" d="M258.83,260.11c0-28.76,23.29-52.06,52.06-52.06c9.26,0,17.96,2.53,25.4,6.74l4.21-7.58
		c-8.56-4.77-18.24-7.58-28.76-7.72h-0.98c-33.39,0-60.47,26.94-60.76,60.19v0.56c0,17.4,7.44,33.11,19.22,44.2l6.03-6.45
		C265.14,288.31,258.83,274.98,258.83,260.11z"/>
	<path id="XMLID_31_" class="st0" d="M495.67,187.85c0.42-0.84,0.98-1.68,1.68-2.39c0.7-0.7,1.54-1.12,2.53-1.54
		c0.84-0.28,1.96-0.56,2.95-0.56s1.96,0.28,2.95,0.56c0.84,0.28,1.82,0.84,2.53,1.54c0.7,0.7,1.26,1.4,1.68,2.39
		c0.42,0.84,0.7,1.96,0.7,3.09s-0.28,2.25-0.7,3.09c-0.42,0.84-0.98,1.68-1.68,2.39c-0.7,0.7-1.54,1.12-2.53,1.4
		c-0.84,0.28-1.96,0.56-2.95,0.56s-1.96-0.28-2.95-0.56c-0.84-0.28-1.82-0.84-2.53-1.4c-0.7-0.56-1.26-1.4-1.68-2.39
		c-0.42-0.84-0.7-1.96-0.7-3.09C495.11,189.81,495.25,188.83,495.67,187.85z M497.5,193.32c0.28,0.7,0.7,1.4,1.26,1.96
		c0.56,0.56,1.12,0.84,1.82,1.26c0.7,0.42,1.4,0.42,2.24,0.42s1.54-0.14,2.25-0.42c0.7-0.28,1.4-0.7,1.82-1.26
		c0.56-0.56,0.84-1.12,1.26-1.96c0.28-0.7,0.42-1.54,0.42-2.39s-0.14-1.68-0.42-2.39c-0.28-0.7-0.7-1.4-1.26-1.96
		c-0.56-0.56-1.12-0.84-1.82-1.26c-0.7-0.42-1.4-0.42-2.25-0.42s-1.54,0.14-2.24,0.42s-1.4,0.7-1.82,1.26
		c-0.56,0.56-0.84,1.12-1.26,1.96c-0.28,0.7-0.42,1.4-0.42,2.39C497.08,191.92,497.22,192.62,497.5,193.32z M502.83,186.73
		c0.98,0,1.96,0.28,2.53,0.56c0.56,0.28,0.84,0.98,0.84,1.96c0,0.28-0.14,0.7-0.28,0.98c-0.14,0.28-0.28,0.42-0.42,0.7
		c-0.28,0.28-0.42,0.28-0.7,0.42c-0.28,0.14-0.56,0.14-0.84,0.28l2.24,3.65h-1.82l-1.96-3.65h-0.98v3.65h-1.68v-8.56L502.83,186.73
		L502.83,186.73z M502.83,190.23c0.42,0,0.84-0.14,1.26-0.28c0.28-0.14,0.42-0.42,0.42-0.98c0-0.28,0-0.42-0.14-0.56
		c-0.14-0.14-0.28-0.28-0.42-0.28c-0.14-0.14-0.28-0.14-0.56-0.14c-0.28,0-0.42,0-0.56,0h-1.4v2.25L502.83,190.23L502.83,190.23z"/>
</g>
</svg>
